<svg xmlns="http://www.w3.org/2000/svg" viewBox="0 0 1600 900" width="1600" height="900">
  <defs>
    <style>
      @import url('https://fonts.googleapis.com/css2?family=Inter:wght@400;500;600;700;800;900&amp;display=swap');
      text { font-family: 'Inter', -apple-system, BlinkMacSystemFont, "Segoe UI", Roboto, sans-serif; }
    </style>
    <filter id="shadow" x="-5%" y="-5%" width="110%" height="115%" filterUnits="userSpaceOnUse">
      <feDropShadow dx="0" dy="4" stdDeviation="12" flood-color="#0f172a" flood-opacity="0.06" />
    </filter>
    <linearGradient id="consGrad" x1="0" y1="0" x2="0" y2="1">
      <stop offset="0%" stop-color="#10B981" stop-opacity="0.25" />
      <stop offset="60%" stop-color="#06B6D4" stop-opacity="0.06" />
      <stop offset="100%" stop-color="#10B981" stop-opacity="0.0" />
    </linearGradient>
    <linearGradient id="lineGradCons" x1="0" y1="0" x2="1" y2="0">
      <stop offset="0%" stop-color="#059669" />
      <stop offset="40%" stop-color="#10B981" />
      <stop offset="80%" stop-color="#06B6D4" />
      <stop offset="100%" stop-color="#3B82F6" />
    </linearGradient>
  </defs>

  <!-- App Shell Background -->
  <rect width="1600" height="900" fill="#F8FAFC" />

  <!-- Left Sidebar -->
  <rect x="0" y="0" width="90" height="900" fill="#FFFFFF" stroke="#E2E8F0" stroke-width="1.5" />
  
  <!-- Global Sphere Icon in Sidebar -->
  <g transform="translate(24, 28)">
    <rect width="42" height="42" rx="10" fill="#047857" />
    <circle cx="21" cy="21" r="12" fill="none" stroke="#FFFFFF" stroke-width="2.5" />
    <ellipse cx="21" cy="21" rx="6" ry="12" fill="none" stroke="#FFFFFF" stroke-width="2" />
    <line x1="9" y1="21" x2="33" y2="21" stroke="#FFFFFF" stroke-width="2" />
  </g>

  <!-- Sidebar Nav Icons -->
  <g transform="translate(32, 120)">
    <!-- Active Dashboard Icon -->
    <rect x="-8" y="-8" width="42" height="42" rx="10" fill="#ECFDF5" stroke="#A7F3D0" stroke-width="1.5" />
    <path d="M4 4h7v7H4V4zm9 0h7v7h-7V4zm0 9h7v7h-7v-7zm-9 0h7v7H4v-7z" fill="#059669" />
  </g>
  <g transform="translate(32, 190)" fill="#94A3B8">
    <path d="M3 13h8V3H3v10zm0 8h8v-6H3v6zm10 0h8V11h-8v10zm0-18v6h8V3h-8z" />
  </g>
  <g transform="translate(32, 260)" fill="#94A3B8">
    <path d="M19 6h-2c0-2.76-2.24-5-5-5S7 3.24 7 6H5c-1.1 0-2 .9-2 2v12c0 1.1.9 2 2 2h14c1.1 0 2-.9 2-2V8c0-1.1-.9-2-2-2zm-7-3c1.66 0 3 1.34 3 3H9c0-1.66 1.34-3 3-3zm7 17H5V8h14v12z" />
  </g>
  <g transform="translate(32, 330)" fill="#94A3B8">
    <path d="M19 3H5c-1.1 0-2 .9-2 2v14c0 1.1.9 2 2 2h14c1.1 0 2-.9 2-2V5c0-1.1-.9-2-2-2zm-5 14H7v-2h7v2zm3-4H7v-2h10v2zm0-4H7V7h10v2z" />
  </g>
  <g transform="translate(32, 830)" fill="#94A3B8">
    <path d="M19.14 12.94c.04-.3.06-.61.06-.94 0-.32-.02-.64-.07-.94l2.03-1.58c.18-.14.23-.41.12-.61l-1.92-3.32c-.12-.22-.37-.29-.59-.22l-2.39.96c-.5-.38-1.03-.7-1.62-.94l-.36-2.54c-.04-.24-.24-.41-.48-.41h-3.84c-.24 0-.43.17-.47.41l-.36 2.54c-.59.24-1.13.57-1.62.94l-2.39-.96c-.22-.08-.47 0-.59.22L2.74 8.87c-.12.21-.08.47.12.61l2.03 1.58c-.05.3-.09.63-.09.94s.02.64.07.94l-2.03 1.58c-.18.14-.23.41-.12.61l1.92 3.32c.12.22.37.29.59.22l2.39-.96c.5.38 1.03.7 1.62.94l.36 2.54c.05.24.24.41.48.41h3.84c.24 0 .44-.17.47-.41l.36-2.54c.59-.24 1.13-.56 1.62-.94l2.39.96c.22.08.47 0 .59-.22l1.92-3.32c.12-.22.07-.47-.12-.61l-2.01-1.58zM12 15.6c-1.98 0-3.6-1.62-3.6-3.6s1.62-3.6 3.6-3.6 3.6 1.62 3.6 3.6-1.62 3.6-3.6 3.6z" />
  </g>

  <!-- Top Header Bar -->
  <g transform="translate(130, 42)">
    <text x="0" y="24" font-size="26" font-weight="800" fill="#0F172A">Consolidated Executive Reporting (GCC, USA, UK &amp; Cross-Border)</text>
    <!-- Verified Partner Badge -->
    <g transform="translate(930, 2)">
      <rect width="144" height="30" rx="15" fill="#ECFDF5" stroke="#A7F3D0" stroke-width="1.2" />
      <path d="M12 15 l4 4 l8 -9" fill="none" stroke="#059669" stroke-width="2.5" stroke-linecap="round" stroke-linejoin="round" transform="translate(4, -1)" />
      <text x="34" y="20" font-size="13" font-weight="700" fill="#047857">Audited Portfolio</text>
    </g>
    <!-- Right Actions -->
    <g transform="translate(1360, 2)">
      <circle cx="15" cy="15" r="16" fill="#FFFFFF" stroke="#E2E8F0" stroke-width="1.5" />
      <text x="11" y="21" font-size="15" font-weight="700" fill="#64748B">?</text>
      <circle cx="58" cy="15" r="16" fill="#FFFFFF" stroke="#E2E8F0" stroke-width="1.5" />
      <path d="M54 11 h8 v8 h-8 z M50 15 h8" fill="none" stroke="#64748B" stroke-width="1.8" stroke-linecap="round" />
    </g>
  </g>

  <!-- 4 KPI Metric Cards (Matching sidebar stats) -->
  <!-- Card 1: Total Portfolio GMV ($142,850,000) -->
  <g transform="translate(130, 105)" filter="url(#shadow)">
    <rect width="325" height="152" rx="18" fill="#FFFFFF" stroke="#E2E8F0" stroke-width="1.5" />
    <text x="24" y="38" font-size="15" font-weight="700" fill="#64748B">Total Portfolio GMV</text>
    <rect x="235" y="20" width="66" height="26" rx="8" fill="#ECFDF5" stroke="#A7F3D0" stroke-width="1.2" />
    <text x="245" y="38" font-size="13" font-weight="800" fill="#059669">+314%</text>
    <text x="24" y="98" font-size="32" font-weight="900" fill="#0F172A" letter-spacing="-0.03em">$142,850,000</text>
    <text x="24" y="128" font-size="13" font-weight="600" fill="#94A3B8">Cross-marketplace audited volume</text>
  </g>

  <!-- Card 2: Avg Blended ROAS (8.40x) -->
  <g transform="translate(485, 105)" filter="url(#shadow)">
    <rect width="325" height="152" rx="18" fill="#FFFFFF" stroke="#E2E8F0" stroke-width="1.5" />
    <text x="24" y="38" font-size="15" font-weight="700" fill="#64748B">Avg Blended ROAS</text>
    <circle cx="282" cy="32" r="10" fill="#F1F5F9" />
    <text x="279" y="36" font-size="12" font-weight="700" fill="#64748B">i</text>
    <text x="24" y="98" font-size="38" font-weight="900" fill="#059669" letter-spacing="-0.03em">8.40x</text>
    <text x="24" y="128" font-size="13" font-weight="600" fill="#059669">Omni-channel blended returns</text>
  </g>

  <!-- Card 3: Buy Box Win Rate (93.4%) -->
  <g transform="translate(840, 105)" filter="url(#shadow)">
    <rect width="325" height="152" rx="18" fill="#FFFFFF" stroke="#E2E8F0" stroke-width="1.5" />
    <text x="24" y="38" font-size="15" font-weight="700" fill="#64748B">Buy Box Win Rate</text>
    <circle cx="282" cy="32" r="10" fill="#F1F5F9" />
    <text x="279" y="36" font-size="12" font-weight="700" fill="#64748B">i</text>
    <text x="24" y="98" font-size="38" font-weight="900" fill="#0F172A" letter-spacing="-0.03em">93.4%</text>
    <text x="24" y="128" font-size="13" font-weight="600" fill="#10B981">Algorithmic inventory price lock</text>
  </g>

  <!-- Card 4: YoY Surge (+314%) -->
  <g transform="translate(1195, 105)" filter="url(#shadow)">
    <rect width="325" height="152" rx="18" fill="#FFFFFF" stroke="#E2E8F0" stroke-width="1.5" />
    <text x="24" y="38" font-size="15" font-weight="700" fill="#64748B">YoY Surge</text>
    <circle cx="282" cy="32" r="10" fill="#F1F5F9" />
    <text x="279" y="36" font-size="12" font-weight="700" fill="#64748B">i</text>
    <text x="24" y="98" font-size="38" font-weight="900" fill="#059669" letter-spacing="-0.03em">+314%</text>
    <text x="24" y="128" font-size="13" font-weight="600" fill="#94A3B8">Year-over-year enterprise surge</text>
  </g>

  <!-- Large Chart Card: Consolidated Global Commerce Volume -->
  <g transform="translate(130, 285)" filter="url(#shadow)">
    <rect width="1390" height="565" rx="20" fill="#FFFFFF" stroke="#E2E8F0" stroke-width="1.5" />
    
    <!-- Chart Header -->
    <text x="36" y="48" font-size="20" font-weight="800" fill="#0F172A">Consolidated Global Commerce Volume (Trailing 12 Months)</text>
    <circle cx="630" cy="42" r="9" fill="#F1F5F9" />
    <text x="627" y="46" font-size="11" font-weight="700" fill="#64748B">i</text>
    
    <!-- Legend -->
    <circle cx="850" cy="42" r="6" fill="#059669" />
    <text x="866" y="47" font-size="13" font-weight="600" fill="#475569">Amazon (US/UK/KSA)</text>
    <circle cx="1025" cy="42" r="6" fill="#FBBF24" />
    <text x="1041" y="47" font-size="13" font-weight="600" fill="#475569">Noon KSA</text>
    <circle cx="1125" cy="42" r="6" fill="#F97316" />
    <text x="1141" y="47" font-size="13" font-weight="600" fill="#475569">Trendyol</text>

    <!-- Date Filter Dropdown -->
    <rect x="1230" y="24" width="130" height="34" rx="8" fill="#F8FAFC" stroke="#E2E8F0" stroke-width="1.2" />
    <text x="1244" y="46" font-size="13" font-weight="600" fill="#475569">Trailing 12 Mo ▾</text>

    <!-- Grid Lines & Y-Axis Labels -->
    <g transform="translate(36, 100)">
      <!-- Line 1 -->
      <text x="0" y="8" font-size="13" font-weight="600" fill="#94A3B8">$150M</text>
      <line x1="75" y1="4" x2="1320" y2="4" stroke="#F1F5F9" stroke-width="1.5" />

      <!-- Line 2 -->
      <text x="0" y="98" font-size="13" font-weight="600" fill="#94A3B8">$120M</text>
      <line x1="75" y1="94" x2="1320" y2="94" stroke="#F1F5F9" stroke-width="1.5" />

      <!-- Line 3 -->
      <text x="0" y="188" font-size="13" font-weight="600" fill="#94A3B8">$90M</text>
      <line x1="75" y1="184" x2="1320" y2="184" stroke="#F1F5F9" stroke-width="1.5" />

      <!-- Line 4 -->
      <text x="0" y="278" font-size="13" font-weight="600" fill="#94A3B8">$60M</text>
      <line x1="75" y1="274" x2="1320" y2="274" stroke="#F1F5F9" stroke-width="1.5" />

      <!-- Line 5 -->
      <text x="0" y="368" font-size="13" font-weight="600" fill="#94A3B8">$30M</text>
      <line x1="75" y1="364" x2="1320" y2="364" stroke="#F1F5F9" stroke-width="1.5" />
    </g>

    <!-- Chart Smooth Area & Curve -->
    <g transform="translate(111, 104)">
      <!-- Shaded Gradient Area Under Curve -->
      <path d="M 0 350 
               C 100 340, 200 330, 280 300 
               C 360 270, 440 230, 520 190 
               C 600 150, 680 160, 760 120 
               C 840 80, 920 60, 1000 50 
               C 1080 40, 1160 20, 1245 10 
               L 1245 364 L 0 364 Z" 
            fill="url(#consGrad)" />

      <!-- Main Vibrant Emerald to Cyan Curve -->
      <path d="M 0 350 
               C 100 340, 200 330, 280 300 
               C 360 270, 440 230, 520 190 
               C 600 150, 680 160, 760 120 
               C 840 80, 920 60, 1000 50 
               C 1080 40, 1160 20, 1245 10" 
            fill="none" stroke="url(#lineGradCons)" stroke-width="4.5" stroke-linecap="round" />

      <!-- Data Dots on Milestones -->
      <circle cx="280" cy="300" r="5.5" fill="#FFFFFF" stroke="#059669" stroke-width="3" />
      <circle cx="520" cy="190" r="5.5" fill="#FFFFFF" stroke="#059669" stroke-width="3" />
      <circle cx="760" cy="120" r="5.5" fill="#FFFFFF" stroke="#06B6D4" stroke-width="3" />
      <circle cx="1000" cy="50" r="5.5" fill="#FFFFFF" stroke="#3B82F6" stroke-width="3" />

      <!-- Highlight Peak Callout at the top right -->
      <circle cx="1245" cy="10" r="7.5" fill="#059669" stroke="#FFFFFF" stroke-width="3" />
      <g transform="translate(1055, -45)">
        <rect width="190" height="48" rx="8" fill="#0F172A" />
        <text x="14" y="22" font-size="12" font-weight="700" fill="#6EE7B7">AUDITED RUN-RATE</text>
        <text x="14" y="40" font-size="15" font-weight="900" fill="#FFFFFF">$142,850,000 GMV</text>
      </g>
    </g>

    <!-- X-Axis Dates -->
    <g transform="translate(111, 505)" font-size="13" font-weight="600" fill="#94A3B8">
      <text x="0" y="0">Q1 2025</text>
      <text x="260" y="0">Q2 2025</text>
      <text x="520" y="0">Q3 2025</text>
      <text x="760" y="0">Q4 2025</text>
      <text x="1000" y="0">Q1 2026</text>
      <text x="1190" y="0">Current Pace</text>
    </g>
  </g>
</svg>
